<?xml version="1.0" encoding="utf-8"?>
<!-- Svg Vector Icons : http://www.onlinewebfonts.com/icon -->
<!DOCTYPE svg PUBLIC "-//W3C//DTD SVG 1.1//EN" "http://www.w3.org/Graphics/SVG/1.1/DTD/svg11.dtd">
<svg version="1.1" xmlns="http://www.w3.org/2000/svg" xmlns:xlink="http://www.w3.org/1999/xlink" x="0px" y="0px" viewBox="0 0 256 256" enable-background="new 0 0 256 256" xml:space="preserve">
<metadata> Svg Vector Icons : http://www.onlinewebfonts.com/icon </metadata>
<g><g><path fill="#000000" d="M147.7,8.1c-54.3,0-98.3,44-98.3,98.3c0,24.4,8.9,46.8,23.6,64l-11.2,10.8c-4.9-1-10.2,0.4-14.1,4.2l-32.8,31.7c-6.3,6.1-6.5,16.2-0.4,22.5l3.3,3.5c6.1,6.3,16.2,6.5,22.5,0.4l32.8-31.7c4.1-4,5.6-9.6,4.5-14.8l11.7-11.3c16.3,12,36.5,19.1,58.3,19.1c54.3,0,98.3-44,98.3-98.3S202,8.1,147.7,8.1z M147.7,176.6c-38.8,0-70.2-31.5-70.2-70.2c0-38.8,31.5-70.2,70.2-70.2c38.8,0,70.2,31.5,70.2,70.2C217.9,145.2,186.5,176.6,147.7,176.6z"/><path fill="#000000" d="M185.2,69.1L185.2,69.1c-10.4-9.5-24-15.7-39.5-15.7c-15.8,0-30.2,5.1-40.6,14.7c-2.5,1.9-4.1,4.9-4.1,8.3c0,5.7,4.6,10.4,10.4,10.4c1.5,0,2.9-0.3,4.1-0.9l0,0c0,0,0,0,0.1-0.1c1.5-0.7,2.9-1.8,3.9-3.1c7.4-5.2,16.5-8.3,26.3-8.3c9.8,0,18.9,3.1,26.3,8.3c1.8,2.6,4.7,4.3,8,4.3c5.4,0,9.7-4.4,9.7-9.7C189.7,73.9,187.9,70.9,185.2,69.1z"/></g></g>
</svg>